<svg width="24" height="24" viewBox="0 0 24 24" fill="none" xmlns="http://www.w3.org/2000/svg">
<path d="M12 0.583862C8.87296 0.552085 5.8612 1.76319 3.62667 3.951C1.39214 6.13881 0.117676 9.12431 0.0833778 12.2514C0.0954271 14.7226 0.8904 17.1265 2.35411 19.1177C3.81782 21.1089 5.87496 22.5849 8.23005 23.3339C8.82588 23.4422 9.04255 23.0847 9.04255 22.7705C9.04255 22.4564 9.04255 21.763 9.04255 20.788C5.72755 21.4922 5.02338 19.228 5.02338 19.228C4.8027 18.5173 4.33355 17.9097 3.70171 17.5164C2.61838 16.8014 3.78838 16.8122 3.78838 16.8122C4.16283 16.8623 4.5211 16.9964 4.8363 17.2047C5.1515 17.413 5.41546 17.6899 5.60838 18.0147C5.94457 18.5977 6.49621 19.0253 7.14456 19.2056C7.79291 19.386 8.48614 19.3045 9.07504 18.9789C9.13561 18.3856 9.40426 17.833 9.83338 17.4189C7.19004 17.1264 4.41671 16.1297 4.41671 11.6555C4.39307 10.4884 4.82431 9.3579 5.61921 8.50303C5.25719 7.50102 5.29994 6.39737 5.73838 5.42636C5.73838 5.42636 6.74588 5.1122 8.98838 6.61803C10.9404 6.09785 12.9947 6.09785 14.9467 6.61803C17.2217 5.1122 18.1967 5.42636 18.1967 5.42636C18.6352 6.39737 18.6779 7.50102 18.3159 8.50303C19.1292 9.34223 19.5839 10.4652 19.5834 11.6339C19.5834 16.1189 16.7884 17.1047 14.1667 17.3972C14.4538 17.6759 14.6755 18.0148 14.816 18.3894C14.9565 18.764 15.0122 19.1651 14.9792 19.5639V22.7597C14.9792 22.7597 15.1959 23.4422 15.7917 23.323C18.1401 22.5695 20.1903 21.0931 21.6495 19.1047C23.1087 17.1163 23.9022 14.7177 23.9167 12.2514C23.8824 9.12431 22.608 6.13881 20.3734 3.951C18.1389 1.76319 15.1271 0.552085 12 0.583862Z" fill="#6E7681"/>
</svg>
