<svg width="34" height="32" viewBox="0 0 34 32" fill="none" xmlns="http://www.w3.org/2000/svg">
<path d="M17.0001 0.000844439C12.6703 -0.0431537 8.50014 1.63376 5.40617 4.66303C2.31221 7.69231 0.547567 11.8261 0.500076 16.1558C0.51676 19.5776 1.61749 22.906 3.64417 25.6631C5.67085 28.4201 8.51919 30.4639 11.7801 31.5008C12.6051 31.6508 12.9051 31.1558 12.9051 30.7208C12.9051 30.2858 12.9051 29.3258 12.9051 27.9758C8.31508 28.9508 7.34008 25.8158 7.34008 25.8158C7.03452 24.8317 6.38492 23.9904 5.51008 23.4458C4.01008 22.4558 5.63008 22.4708 5.63008 22.4708C6.14855 22.5402 6.64461 22.726 7.08104 23.0143C7.51747 23.3027 7.88295 23.6861 8.15008 24.1358C8.61557 24.943 9.37938 25.5352 10.2771 25.7849C11.1748 26.0345 12.1347 25.9218 12.9501 25.4708C13.0339 24.6494 13.4059 23.8842 14.0001 23.3108C10.3401 22.9058 6.50008 21.5258 6.50008 15.3308C6.46735 13.7149 7.06444 12.1495 8.16508 10.9658C7.66382 9.57845 7.723 8.05031 8.33008 6.70584C8.33008 6.70584 9.72508 6.27084 12.8301 8.35584C15.5329 7.6356 18.3772 7.6356 21.0801 8.35584C24.2301 6.27084 25.5801 6.70584 25.5801 6.70584C26.1871 8.05031 26.2463 9.57845 25.7451 10.9658C26.8713 12.1278 27.5008 13.6827 27.5001 15.3008C27.5001 21.5108 23.6301 22.8758 20.0001 23.2808C20.3976 23.6667 20.7046 24.1359 20.8991 24.6546C21.0936 25.1734 21.1708 25.7287 21.1251 26.2808V30.7058C21.1251 30.7058 21.4251 31.6508 22.2501 31.4858C25.5017 30.4424 28.3405 28.3982 30.3609 25.6451C32.3813 22.8919 33.48 19.5707 33.5001 16.1558C33.4526 11.8261 31.6879 7.69231 28.594 4.66303C25.5 1.63376 21.3299 -0.0431537 17.0001 0.000844439Z" fill="white"/>
</svg>
