<svg width="26" height="27" viewBox="0 0 26 27" fill="none" xmlns="http://www.w3.org/2000/svg">
<path d="M13 1.58392C9.87296 1.55215 6.8612 2.76325 4.62667 4.95106C2.39213 7.13887 1.11767 10.1244 1.08337 13.2514C1.09542 15.7227 1.8904 18.1266 3.35411 20.1177C4.81782 22.1089 6.87496 23.585 9.23004 24.3339C9.82588 24.4423 10.0425 24.0848 10.0425 23.7706C10.0425 23.4564 10.0425 22.7631 10.0425 21.7881C6.72754 22.4923 6.02337 20.2281 6.02337 20.2281C5.8027 19.5173 5.33354 18.9097 4.70171 18.5164C3.61837 17.8014 4.78837 17.8123 4.78837 17.8123C5.16283 17.8623 5.52109 17.9965 5.83629 18.2048C6.15149 18.413 6.41545 18.6899 6.60837 19.0148C6.94457 19.5977 7.4962 20.0254 8.14455 20.2057C8.7929 20.386 9.48613 20.3046 10.075 19.9789C10.1356 19.3857 10.4043 18.833 10.8334 18.4189C8.19004 18.1264 5.41671 17.1298 5.41671 12.6556C5.39307 11.4885 5.8243 10.358 6.61921 9.50309C6.25719 8.50108 6.29993 7.39743 6.73837 6.42642C6.73837 6.42642 7.74587 6.11226 9.98837 7.61809C11.9404 7.09791 13.9947 7.09791 15.9467 7.61809C18.2217 6.11226 19.1967 6.42642 19.1967 6.42642C19.6351 7.39743 19.6779 8.50108 19.3159 9.50309C20.1292 10.3423 20.5839 11.4652 20.5834 12.6339C20.5834 17.1189 17.7884 18.1048 15.1667 18.3973C15.4538 18.676 15.6755 19.0148 15.816 19.3894C15.9565 19.7641 16.0122 20.1652 15.9792 20.5639V23.7598C15.9792 23.7598 16.1959 24.4423 16.7917 24.3231C19.1401 23.5695 21.1903 22.0931 22.6495 20.1047C24.1087 18.1164 24.9022 15.7177 24.9167 13.2514C24.8824 10.1244 23.6079 7.13887 21.3734 4.95106C19.1389 2.76325 16.1271 1.55215 13 1.58392Z" fill="#6E7681"/>
</svg>
